<?xml version="1.0" standalone="no"?>
<!DOCTYPE svg PUBLIC "-//W3C//DTD SVG 20010904//EN"
 "http://www.w3.org/TR/2001/REC-SVG-20010904/DTD/svg10.dtd">
<svg version="1.0" xmlns="http://www.w3.org/2000/svg"
 width="96.000000pt" height="96.000000pt" viewBox="0 0 96.000000 96.000000"
 preserveAspectRatio="xMidYMid meet">
<metadata>
Created by potrace 1.14, written by Peter Selinger 2001-2017
</metadata>
<g transform="translate(0.000000,96.000000) scale(0.100000,-0.100000)"
fill="#000000" stroke="none">
<path d="M0 480 l0 -480 480 0 480 0 0 480 0 480 -480 0 -480 0 0 -480z m400
290 c0 -15 146 -12 170 2 18 11 23 9 45 -16 30 -35 30 -38 5 -61 -11 -10 -20
-28 -20 -40 0 -12 -9 -34 -21 -49 -22 -28 -18 -46 11 -46 42 0 50 -10 50 -66
0 -42 3 -54 15 -54 9 0 18 12 21 29 7 33 50 79 61 66 5 -4 2 -10 -4 -12 -7 -3
-13 -20 -13 -38 0 -24 5 -34 20 -38 11 -3 20 -12 20 -21 0 -8 -9 -20 -20 -26
-11 -6 -20 -15 -20 -20 0 -17 28 -11 39 7 8 14 12 15 25 4 24 -20 21 -87 -3
-101 -49 -25 -100 0 -71 35 20 24 -33 75 -77 75 -39 0 -44 -19 -13 -50 30 -30
27 -87 -5 -102 -19 -8 -28 -8 -40 2 -18 15 -15 35 6 35 20 0 17 29 -3 33 -13
2 -18 -3 -18 -17 0 -14 -6 -21 -20 -21 -17 0 -20 -7 -20 -50 0 -44 -3 -52 -25
-62 -36 -16 -55 4 -55 58 0 48 -13 63 -38 41 -26 -22 -53 -28 -68 -16 -20 17
-17 72 6 102 28 36 25 47 -15 47 -24 0 -42 -8 -60 -26 -24 -23 -25 -30 -15
-49 7 -13 9 -28 6 -34 -10 -15 -69 -14 -84 1 -17 17 -15 84 3 102 24 23 18 41
-17 51 -23 7 -34 17 -36 33 -5 32 23 28 60 -9 17 -16 37 -28 44 -25 17 7 18
58 2 74 -17 17 4 15 30 -4 12 -8 22 -26 22 -39 0 -29 19 -43 31 -24 5 8 9 30
9 50 0 40 11 53 53 63 32 8 34 17 7 41 -11 10 -20 31 -20 46 0 18 -7 32 -20
39 -26 14 -25 37 3 66 22 24 57 32 57 14z m330 -85 c7 -9 10 -18 7 -22 -8 -7
-37 15 -37 28 0 14 16 11 30 -6z m-483 -12 c-9 -9 -19 -14 -23 -11 -10 10 6
28 24 28 15 0 15 -1 -1 -17z m588 -184 c10 -15 -26 -50 -49 -47 -30 5 -29 21
2 40 33 20 39 21 47 7z m-665 -376 c0 -13 -3 -13 -15 -3 -8 7 -12 16 -9 21 8
13 24 1 24 -18z m638 5 c-6 -18 -28 -21 -28 -4 0 9 7 16 16 16 9 0 14 -5 12
-12z"/>
<path d="M400 660 l0 -60 78 3 77 3 3 57 3 57 -81 0 -80 0 0 -60z m100 0 c0
-13 -7 -20 -20 -20 -13 0 -20 7 -20 20 0 13 7 20 20 20 13 0 20 -7 20 -20z"/>
<path d="M200 386 c0 -17 27 -29 35 -16 4 6 3 15 0 20 -9 15 -35 12 -35 -4z"/>
<path d="M456 344 c-22 -22 -21 -64 2 -64 36 0 62 13 62 30 0 19 -25 50 -40
50 -5 0 -16 -7 -24 -16z"/>
<path d="M362 303 c2 -10 10 -18 18 -18 8 0 16 8 18 18 2 12 -3 17 -18 17 -15
0 -20 -5 -18 -17z"/>
</g>
</svg>
